<svg width="375" height="400" viewBox="0 0 375 400" fill="none" xmlns="http://www.w3.org/2000/svg">
<g clip-path="url(#clip0_1_468)">
<path d="M-15.2046 392.247L85.5333 390.945L46.4966 380.205L50.8966 370.898L75.8637 367.472L69.4684 365.989L52.2779 365.222L-15.2046 392.247Z" fill="#172B4D"/>
<path d="M40.5105 344.716L37.4408 344.767L11.9109 335.255L40.7663 351.619L45.4732 347.733L40.5105 344.716Z" fill="#36B37E"/>
<path d="M40.5109 344.715L90.1893 335.612L65.3757 359.699L40.5109 344.715Z" fill="#172B4D"/>
<path d="M11.9109 335.255L61.487 363.432L50.3337 365.478L23.0131 367.472L11.9109 335.255Z" fill="white" stroke="#36B37E" stroke-width="0.633632" stroke-miterlimit="10" stroke-linejoin="round"/>
<path d="M61.4872 363.432L90.1891 335.612L69.4685 365.989L61.4872 363.432Z" fill="white" stroke="#36B37E" stroke-width="0.633632" stroke-miterlimit="10" stroke-linejoin="round"/>
<path d="M40.7666 351.619L53.6083 341.033L54.9385 342.107L50.8967 357.398L40.7666 351.619Z" fill="white" stroke="#36B37E" stroke-width="0.633632" stroke-miterlimit="10" stroke-linejoin="round"/>
<path d="M54.9384 342.107L66.5522 358.574L61.4872 363.432L50.8966 357.398L54.9384 342.107Z" fill="white" stroke="#36B37E" stroke-width="0.633632" stroke-miterlimit="10" stroke-linejoin="round"/>
<path d="M69.4686 365.989L50.334 365.477L61.4873 363.432L69.4686 365.989Z" fill="white" stroke="#36B37E" stroke-width="0.633632" stroke-miterlimit="10" stroke-linejoin="round"/>
<path d="M3.36697 358.113L-0.725996 358.829L-36.7441 351.567L5.20881 367.216L10.6832 361.028L3.36697 358.113Z" fill="white" stroke="#36B37E" stroke-width="0.633632" stroke-miterlimit="10" stroke-linejoin="round"/>
<path d="M3.36694 358.113L67.6266 335.612L39.6409 372.688L3.36694 358.113Z" fill="#C5E9DA" stroke="#36B37E" stroke-width="0.633632" stroke-miterlimit="10"/>
<path d="M-36.7441 351.567L35.3433 378.415L20.8644 383.529L-15.1537 391.865L-36.7441 351.567Z" fill="white" stroke="#36B37E" stroke-width="0.633632" stroke-miterlimit="10" stroke-linejoin="round"/>
<path d="M35.3431 378.416L67.6264 335.612L46.4965 380.205L35.3431 378.416Z" fill="white" stroke="#36B37E" stroke-width="0.633632" stroke-miterlimit="10" stroke-linejoin="round"/>
<path d="M5.20862 367.217L20.0968 350.494L22.0921 351.568L19.9433 372.688L5.20862 367.217Z" fill="#36B37E"/>
<path d="M22.0922 351.567L40.971 370.949L35.3432 378.415L19.9434 372.688L22.0922 351.567Z" fill="white" stroke="#36B37E" stroke-width="0.633632" stroke-miterlimit="10" stroke-linejoin="round"/>
<path d="M46.4965 380.205L20.8643 383.529L35.3431 378.415L46.4965 380.205Z" fill="white" stroke="#36B37E" stroke-width="0.633632" stroke-miterlimit="10" stroke-linejoin="round"/>
<mask id="mask0_1_468" style="mask-type:alpha" maskUnits="userSpaceOnUse" x="-38" y="351" width="74" height="41">
<path d="M-36.8335 351.759L35.2078 378.309L20.9414 383.223L-15.0767 391.558L-36.8335 351.759Z" fill="white" stroke="#36B37E" stroke-width="0.633632" stroke-miterlimit="10" stroke-linejoin="round"/>
</mask>
<g mask="url(#mask0_1_468)">
<path d="M6.5389 379.489L-1.2889 379.745L-4.92141 373.455L-12.4422 373.762L-8.91206 380.001L-16.3306 380.205L-12.9027 386.496L-5.33071 386.342L2.39477 386.138L6.18077 392.734L14.2644 392.632L18.255 399.383H26.6456L22.5526 392.53L18.5108 385.831L10.3249 385.984L6.5389 379.489Z" fill="#C5E9DA"/>
<path d="M2.7531 373.097L-0.930569 366.858L-8.50256 367.268L-4.92121 373.455L2.7531 373.097Z" fill="#C5E9DA"/>
<path d="M14.5204 379.234L10.6832 372.739L2.75305 373.097L6.53905 379.49L14.5204 379.234Z" fill="#36B37E"/>
<path d="M18.7667 372.433L14.8272 365.989L6.84595 366.45L10.6831 372.74L18.7667 372.433Z" fill="#172B4D"/>
<path d="M22.7575 378.927L14.5204 379.234L18.511 385.831L26.8505 385.626L35.4457 385.421L31.1992 378.671L27.0551 372.074L18.7668 372.432L22.7575 378.927Z" fill="#36B37E"/>
<path d="M-0.93066 366.858L6.84598 366.449L3.11115 360.261L-0.521362 354.176L-8.0422 354.738L-15.4095 355.25L-11.9817 361.182L-4.51201 360.722L-0.93066 366.858Z" fill="#36B37E"/>
<path d="M19.0226 359.238L10.9901 359.75L14.8273 365.989L23.0132 365.58L19.0226 359.238Z" fill="#36B37E"/>
<path d="M35.5992 371.665L31.3527 365.119L23.0133 365.579L27.0551 372.074L35.5992 371.665Z" fill="#36B37E"/>
</g>
</g>
<mask id="mask1_1_468" style="mask-type:alpha" maskUnits="userSpaceOnUse" x="326" y="0" width="68" height="127">
<rect x="326" width="68" height="127" fill="#C4C4C4"/>
</mask>
<g mask="url(#mask1_1_468)">
<path d="M397.803 106.077L441.808 121.042H378.67L370.575 120.159L366.651 117.706L380.044 106.077H397.803Z" fill="#172B4D"/>
<path d="M392.014 78.601V76.2459C392.014 76.2459 386.863 66.0403 386.127 65.9422C385.391 65.8441 325.54 40.9189 325.54 40.9189L348.352 85.3229L357.379 94.9397L392.014 78.601Z" fill="white" stroke="#36B37E" stroke-width="0.598795" stroke-miterlimit="10"/>
<mask id="mask2_1_468" style="mask-type:alpha" maskUnits="userSpaceOnUse" x="325" y="40" width="68" height="56">
<path d="M392.197 78.8676V76.5125C392.197 76.5125 387.046 66.3069 386.31 66.2088C385.574 66.1107 325.723 41.1855 325.723 41.1855L348.535 85.5895L357.562 95.2063L392.197 78.8676Z" fill="white" stroke="#36B37E" stroke-width="0.598795" stroke-miterlimit="10"/>
</mask>
<g mask="url(#mask2_1_468)">
<path d="M367.043 67.0712L359.537 67.3165L356.103 61.2324L348.891 61.5759L352.276 67.5128L345.114 67.7581L348.45 73.7931L355.661 73.6459L363.118 73.4496L366.749 79.73L374.451 79.6809L378.277 86.1575H386.372L382.398 79.5828L378.523 73.1062L370.722 73.3025L367.043 67.0712Z" fill="#C5E9DA"/>
<path d="M363.462 60.9371L359.929 54.9512L352.669 55.3437L356.103 61.2315L363.462 60.9371Z" fill="#36B37E"/>
<path d="M374.745 66.7769L371.017 60.5947L363.462 60.9382L367.043 67.0713L374.745 66.7769Z" fill="#36B37E"/>
<path d="M378.768 60.2503L374.99 54.1172L367.386 54.5097L371.016 60.5938L378.768 60.2503Z" fill="#36B37E"/>
<path d="M382.643 66.531L374.745 66.7764L378.523 73.1058L386.568 72.9586L394.81 72.7623L390.738 66.2857L386.764 59.9072L378.768 60.2507L382.643 66.531Z" fill="#36B37E"/>
<path d="M341.876 61.8703L348.891 61.5759L345.604 55.6881L352.669 55.3446L349.333 49.5059L342.367 49.9474L335.547 50.389L338.687 56.0806L331.917 56.424L325.343 56.7675L328.336 62.4591L335.008 62.1647L338.148 68.0034L345.114 67.7581L341.876 61.8703Z" fill="#172B4D"/>
<path d="M331.377 68.1992L334.468 74.087L341.385 73.9398L338.148 68.0029L331.377 68.1992Z" fill="#36B37E"/>
<path d="M325.932 45.2856L328.876 50.8299L335.547 50.3883L332.457 44.7949L325.932 45.2856Z" fill="#36B37E"/>
<path d="M359.929 54.9516L367.386 54.51L363.805 48.5731L360.322 42.7344L353.11 43.2741L346.046 43.8138L349.333 49.5054L356.495 49.0638L359.929 54.9516Z" fill="#36B37E"/>
<path d="M379.013 47.5918L371.311 48.0824L374.99 54.1175L382.84 53.7249L379.013 47.5918Z" fill="#36B37E"/>
<path d="M341.385 73.9392L344.672 80.0233L351.835 79.9251L348.45 73.792L341.385 73.9392Z" fill="#36B37E"/>
</g>
<path d="M378.67 77.0303L351.198 82.9181L350.511 84.7335L356.643 93.1236L378.67 77.0303Z" fill="#172B4D"/>
<path d="M402.12 84.5377L396.576 79.8274L387.991 73.3018L366.258 82.0354L365.277 87.2853L370.575 94.7923L402.12 84.5377Z" fill="white" stroke="#36B37E" stroke-width="0.598795" stroke-miterlimit="10"/>
<path d="M373.764 93.6635L370.575 94.792L369.104 115.743L370.575 120.159L384.557 106.911L390.984 88.1191L373.764 93.6635Z" fill="white" stroke="#36B37E" stroke-width="0.598795" stroke-miterlimit="10"/>
<path d="M416.69 79.8271L444.408 94.792L373.764 93.6635L416.69 79.8271Z" fill="#C5E9DA" stroke="#36B37E" stroke-width="0.598795" stroke-miterlimit="10"/>
<path d="M370.575 94.7922V91.3576L348.352 60.79L345.409 65.4512L366.651 117.706L369.104 115.743L370.575 94.7922Z" fill="white" stroke="#36B37E" stroke-width="0.598795" stroke-miterlimit="10"/>
<path d="M348.352 60.7898L345.408 65.4509L335.499 74.6752L343.348 58.8271L348.352 60.7898Z" fill="white" stroke="#36B37E" stroke-width="0.598795" stroke-miterlimit="10"/>
<path d="M401.335 97.1477L373.764 93.6641L402.562 94.1547L401.335 97.1477Z" fill="#172B4D"/>
<path d="M376.757 92.731L367.141 84.7334L366.749 86.1072L370.575 91.3572V94.7918L376.757 92.731Z" fill="#172B4D"/>
<path d="M364.59 112.701L362.334 115.498L359.39 112.701L344.035 66.7759L345.409 65.4512L364.59 112.701Z" fill="#C5E9DA" stroke="#36B37E" stroke-width="0.598795" stroke-miterlimit="10"/>
</g>
<defs>
<clipPath id="clip0_1_468">
<rect width="127.445" height="64.3839" fill="white" transform="translate(-37 335)"/>
</clipPath>
</defs>
</svg>
